<?xml version="1.0" encoding="UTF-8" standalone="no"?>
<!-- Created with Inkscape (http://www.inkscape.org/) -->

<svg
   width="512"
   height="512"
   viewBox="0 0 512 512"
   version="1.1"
   id="svg5"
   xmlns="http://www.w3.org/2000/svg"
   xmlns:svg="http://www.w3.org/2000/svg">
  <defs
     id="defs2" />
  <g
     id="layer1">
    <g
       id="g39"
       style="fill:#ff0000;stroke:#ff0000;stroke-width:56.6929">
      <path
         id="path51"
         style="fill:#e9e9ff;fill-rule:evenodd;stroke:none;stroke-linejoin:round"
         d="m 242.30764,291.72736 116.05897,17.11246 v 81.43177 L 242.30764,346.78701 Z"
         points="358.36661,308.83982 358.36661,390.27159 242.30764,346.78701 242.30764,291.72736 " />
      <path
         id="path41"
         style="fill:#353564;fill-rule:evenodd;stroke:none;stroke-linejoin:round"
         d="m 146.70209,304.39265 v 74.57822 l 95.60555,-32.18386 v -55.05965 z"
         points="146.70209,378.97087 242.30764,346.78701 242.30764,291.72736 146.70209,304.39265 " />
      <path
         id="path49"
         style="fill:#afafde;fill-rule:evenodd;stroke:none;stroke-linejoin:round"
         d="m 146.70209,378.97087 114.64136,96.09644 97.02316,-84.79572 -116.05897,-43.48458 z"
         points="261.34345,475.06731 358.36661,390.27159 242.30764,346.78701 146.70209,378.97087 " />
      <path
         id="path43"
         style="fill:#4d4d9f;fill-rule:evenodd;stroke:none;stroke-linejoin:round"
         d="m 146.70209,304.39265 114.64136,37.81678 97.02316,-33.36961 -116.05897,-17.11246 z"
         points="261.34345,342.20943 358.36661,308.83982 242.30764,291.72736 146.70209,304.39265 " />
      <path
         id="path47"
         style="fill:#d7d7ff;fill-rule:evenodd;stroke:none;stroke-linejoin:round"
         d="m 261.34345,342.20943 v 132.85788 l 97.02316,-84.79572 v -81.43177 z"
         points="261.34345,475.06731 358.36661,390.27159 358.36661,308.83982 261.34345,342.20943 " />
      <path
         id="path45"
         style="fill:#8686bf;fill-rule:evenodd;stroke:none;stroke-linejoin:round"
         d="m 146.70209,304.39265 114.64136,37.81678 V 475.06731 L 146.70209,378.97087 Z"
         points="261.34345,342.20943 261.34345,475.06731 146.70209,378.97087 146.70209,304.39265 " />
    </g>
    <g
       id="g53"
       style="fill:#ff0000;stroke:#ff0000;stroke-width:56.6929">
      <path
         id="path65"
         style="fill:#e9e9ff;fill-rule:evenodd;stroke:none;stroke-linejoin:round"
         d="m 317.99363,348.51037 40.37298,11.25785 v 30.50337 l -40.37298,-14.76815 z"
         points="358.36661,359.76822 358.36661,390.27159 317.99363,375.50344 317.99363,348.51037 " />
      <path
         id="path55"
         style="fill:#353564;fill-rule:evenodd;stroke:none;stroke-linejoin:round"
         d="m 266.93829,370.44019 v 33.83097 l 51.05534,-28.76772 v -26.99307 z"
         points="266.93829,404.27116 317.99363,375.50344 317.99363,348.51037 266.93829,370.44019 " />
      <path
         id="path63"
         style="fill:#afafde;fill-rule:evenodd;stroke:none;stroke-linejoin:round"
         d="m 266.93829,404.27116 43.71917,23.98823 47.70915,-37.9878 -40.37298,-14.76815 z"
         points="310.65746,428.25939 358.36661,390.27159 317.99363,375.50344 266.93829,404.27116 " />
      <path
         id="path57"
         style="fill:#4d4d9f;fill-rule:evenodd;stroke:none;stroke-linejoin:round"
         d="m 266.93829,370.44019 43.71917,18.28638 47.70915,-28.95835 -40.37298,-11.25785 z"
         points="310.65746,388.72657 358.36661,359.76822 317.99363,348.51037 266.93829,370.44019 " />
      <path
         id="path61"
         style="fill:#d7d7ff;fill-rule:evenodd;stroke:none;stroke-linejoin:round"
         d="m 310.65746,388.72657 v 39.53282 l 47.70915,-37.9878 v -30.50337 z"
         points="310.65746,428.25939 358.36661,390.27159 358.36661,359.76822 310.65746,388.72657 " />
      <path
         id="path59"
         style="fill:#8686bf;fill-rule:evenodd;stroke:none;stroke-linejoin:round"
         d="m 266.93829,370.44019 43.71917,18.28638 v 39.53282 l -43.71917,-23.98823 z"
         points="310.65746,388.72657 310.65746,428.25939 266.93829,404.27116 266.93829,370.44019 " />
    </g>
    <g
       id="g151"
       style="fill:#ff0000;stroke:#ff0000;stroke-width:56.6929">
      <path
         id="path163"
         style="fill:#e9e9ff;fill-rule:evenodd;stroke:none;stroke-width:78.124;stroke-linejoin:round"
         d="m 275.84046,256.92945 47.65515,5.03229 v 46.34013 L 275.84046,296.9726 Z"
         points="323.49561,261.96174 323.49561,308.30187 275.84046,296.9726 275.84046,256.92945 " />
      <path
         id="path153"
         style="fill:#353564;fill-rule:evenodd;stroke:none;stroke-width:78.124;stroke-linejoin:round"
         d="m 222.56677,258.23627 v 49.11353 l 53.27369,-10.3772 v -40.04315 z"
         points="222.56677,307.3498 275.84046,296.9726 275.84046,256.92945 222.56677,258.23627 " />
      <path
         id="path161"
         style="fill:#afafde;fill-rule:evenodd;stroke:none;stroke-width:78.124;stroke-linejoin:round"
         d="m 222.56677,307.3498 49.95396,16.48423 50.97488,-15.53216 -47.65515,-11.32927 z"
         points="272.52073,323.83403 323.49561,308.30187 275.84046,296.9726 222.56677,307.3498 " />
      <path
         id="path155"
         style="fill:#4d4d9f;fill-rule:evenodd;stroke:none;stroke-width:78.124;stroke-linejoin:round"
         d="m 222.56677,258.23627 49.95396,6.66152 50.97488,-2.93605 -47.65515,-5.03229 z"
         points="272.52073,264.89779 323.49561,261.96174 275.84046,256.92945 222.56677,258.23627 " />
      <path
         id="path159"
         style="fill:#d7d7ff;fill-rule:evenodd;stroke:none;stroke-width:78.124;stroke-linejoin:round"
         d="m 272.52073,264.89779 v 58.93624 l 50.97488,-15.53216 v -46.34013 z"
         points="272.52073,323.83403 323.49561,308.30187 323.49561,261.96174 272.52073,264.89779 " />
      <path
         id="path157"
         style="fill:#8686bf;fill-rule:evenodd;stroke:none;stroke-width:78.124;stroke-linejoin:round"
         d="m 222.56677,258.23627 49.95396,6.66152 v 58.93624 L 222.56677,307.3498 Z"
         points="272.52073,264.89779 272.52073,323.83403 222.56677,307.3498 222.56677,258.23627 " />
    </g>
    <text
       xml:space="preserve"
       style="font-size:24px;line-height:1.25;font-family:'F500 Ang-ular';-inkscape-font-specification:'F500 Ang-ular, Normal';font-variant-ligatures:none"
       x="151.55977"
       y="127.27135"
       id="text931"><tspan
         id="tspan929"
         x="151.55977"
         y="127.27135"
         style="font-style:normal;font-variant:normal;font-weight:normal;font-stretch:normal;font-size:24px;font-family:'.Al Nile PUA';-inkscape-font-specification:'.Al Nile PUA, Normal';font-variant-ligatures:none;font-variant-caps:normal;font-variant-numeric:normal;font-variant-east-asian:normal">val y bran</tspan></text>
    <path
       style="fill:none;stroke:#000000;stroke-width:1px;stroke-linecap:butt;stroke-linejoin:miter;stroke-opacity:1"
       d="m 174.87666,396.3871 c 0,-4.53384 0,-9.06768 0,-13.60152 0,-10.2905 -0.8756,-20.59416 3.88615,-30.11765 0.57931,-1.15862 2.59076,0 3.88615,0 3.23845,0 6.56162,-0.73587 9.71537,0 6.68266,1.55929 13.05937,4.25222 19.43074,6.80076 1.75327,0.70131 4.19465,1.14651 4.85768,2.91461 0.61235,1.63292 -1.45099,3.18459 -1.94307,4.85769 -1.13029,3.84297 -2.04564,7.74808 -2.91461,11.65844 -3.6406,16.38269 -6.80076,32.7757 -6.80076,49.54839"
       id="path6301" />
    <ellipse
       style="fill:#f9f9f9;stroke:#ff0000;stroke-width:1.76348;stroke-linecap:butt;stroke-linejoin:round;stroke-miterlimit:4;stroke-dasharray:none"
       id="path6421"
       cx="84.523705"
       cy="210.82353"
       rx="52.577759"
       ry="50.634686" />
  </g>
</svg>
